<svg width="800" height="600" xmlns="http://www.w3.org/2000/svg">
    <title>BigBox Architecture (Basic)</title>

    <!-- Styles -->
    <defs>
        <style>
            .component {
                fill: #f0f0f0;
                stroke: #333;
                stroke-width: 1.5;
                rx: 5; /* Rounded corners */
            }
            .label {
                font-family: Helvetica, Arial, sans-serif;
                font-size: 14px;
                text-anchor: middle;
                fill: #000;
            }
            .arrow {
                stroke: #333;
                stroke-width: 1.5;
                marker-end: url(#arrowhead);
            }
            .optional {
                stroke-dasharray: 5,5;
            }
        </style>
        <marker id="arrowhead" markerWidth="10" markerHeight="7" refX="0" refY="3.5" orient="auto">
            <polygon points="0 0, 10 3.5, 0 7" fill="#333" />
        </marker>
    </defs>

    <!-- Components -->
    <rect x="50" y="150" width="180" height="200" class="component" />
    <text x="140" y="170" class="label">Client PWA</text>
    <text x="140" y="190" class="label">(Vite + React)</text>
    
    <rect x="80" y="220" width="120" height="40" class="component" style="fill: #d1e8ff;" />
    <text x="140" y="245" class="label">App Shell</text>

    <rect x="80" y="270" width="120" height="40" class="component" style="fill: #d1e8ff;" />
    <text x="140" y="295" class="label">Chat UI</text>

    <rect x="300" y="50" width="150" height="60" class="component" style="fill: #b3e6ff;" />
    <text x="375" y="80" class="label">Service Worker</text>

    <rect x="300" y="150" width="150" height="60" class="component" style="fill: #b3e6ff;" />
    <text x="375" y="180" class="label">IndexedDB</text>

    <rect x="300" y="250" width="150" height="100" class="component" style="fill: #f0d9ff;" />
    <text x="375" y="270" class="label">Sandboxes</text>
    <text x="375" y="290" class="label">(iframes)</text>

    <rect x="550" y="150" width="180" height="60" class="component" style="fill: #ffd1d1;" />
    <text x="640" y="180" class="label">LLM API</text>
    <text x="640" y="200" class="label">(OpenAI/DeepSeek)</text>

    <rect x="550" y="300" width="180" height="60" class="component optional" style="fill: #e0e0e0;" />
    <text x="640" y="330" class="label">Edge Proxy</text>
    <text x="640" y="350" class="label">(Optional)</text>

    <!-- Connections -->
    <line x1="230" y1="240" x2="300" y2="80" class="arrow" /> <!-- App Shell to SW -->
    <line x1="230" y1="290" x2="550" y2="180" class="arrow" /> <!-- Chat UI to LLM -->
    <line x1="450" y1="180" x2="375" y2="250" class="arrow" /> <!-- IDB to Sandboxes -->
    <line x1="375" y1="110" x2="375" y2="150" class="arrow" /> <!-- SW to IDB -->
    <line x1="230" y1="290" x2="550" y2="330" class="arrow optional" /> <!-- Chat UI to Edge (Optional) -->
    <line x1="550" y1="330" x2="550" y2="210" class="arrow optional" /> <!-- Edge to LLM (Optional) -->

</svg> 